<?xml version="1.0" standalone="no"?>
<!DOCTYPE svg PUBLIC "-//W3C//DTD SVG 20010904//EN"
 "http://www.w3.org/TR/2001/REC-SVG-20010904/DTD/svg10.dtd">
<svg version="1.0" xmlns="http://www.w3.org/2000/svg"
 width="250.000000pt" height="250.000000pt" viewBox="0 0 250.000000 250.000000"
 preserveAspectRatio="xMidYMid meet">
<metadata>
Created by potrace 1.11, written by Peter Selinger 2001-2013
</metadata>
<g transform="translate(0.000000,250.000000) scale(0.100000,-0.100000)"
fill="#000000" stroke="none">
<path d="M442 1676 c-54 -18 -117 -65 -104 -78 12 -12 -7 -78 -25 -85 -18 -7
-16 -30 2 -37 18 -7 20 -49 3 -75 -9 -15 -9 -26 1 -47 9 -21 10 -29 1 -32 -7
-3 -1 -11 13 -21 91 -60 202 -144 202 -153 0 -7 -41 -10 -122 -10 l-123 1 0
-68 c0 -49 4 -70 14 -74 7 -3 16 -20 20 -37 10 -50 72 -105 141 -125 137 -40
313 2 355 85 22 43 26 70 10 70 -5 0 -10 18 -10 40 0 33 4 42 23 50 22 9 22 9
1 9 -16 1 -23 9 -26 31 -3 17 0 30 5 30 5 0 7 14 3 32 -8 41 -78 114 -117 122
-16 3 -29 11 -29 19 0 7 -22 26 -50 42 -27 16 -49 34 -49 40 4 37 -3 65 -16
65 -9 0 -15 9 -15 25 0 30 16 33 25 5 3 -11 11 -20 16 -20 5 0 9 -13 9 -30 l0
-30 125 0 125 0 0 24 c0 13 -7 26 -15 30 -20 7 -20 46 0 46 26 0 6 51 -34 88
-62 57 -114 76 -221 79 -62 2 -110 -2 -138 -11z m158 -146 c0 -5 -4 -10 -10
-10 -5 0 -10 5 -10 10 0 6 5 10 10 10 6 0 10 -4 10 -10z m-40 -426 c6 -14 10
-43 10 -64 0 -22 5 -40 13 -43 9 -4 9 -7 0 -18 -10 -10 -16 -9 -31 9 -14 16
-19 38 -20 82 0 63 12 78 28 34z"/>
<path d="M870 1636 c0 -19 5 -38 10 -41 19 -11 10 -35 -12 -36 l-23 0 23 -9
c25 -11 29 -28 7 -36 -8 -4 -15 -12 -15 -20 0 -8 7 -14 15 -14 17 0 22 -65 5
-75 -5 -3 -10 -20 -10 -37 0 -16 -8 -43 -17 -59 -14 -24 -15 -33 -6 -49 7 -10
15 -48 19 -85 4 -36 11 -68 15 -71 18 -11 9 -80 -12 -103 -16 -17 -18 -26 -10
-34 6 -6 11 -32 11 -57 0 -25 5 -51 12 -58 8 -8 53 -12 142 -11 72 0 125 3
119 6 -8 3 -13 25 -13 59 0 30 -4 54 -10 54 -16 0 -12 30 5 36 8 4 12 10 9 15
-3 5 0 9 5 9 6 0 11 -20 11 -45 0 -25 5 -45 10 -45 6 0 10 -15 10 -33 0 -53
10 -57 154 -56 72 0 125 3 119 6 -7 2 -13 19 -13 37 0 18 -5 37 -11 43 -6 6
-9 19 -6 29 4 17 6 17 12 -3 4 -12 13 -24 21 -27 8 -3 14 -14 14 -25 0 -11 10
-29 22 -41 21 -19 34 -20 350 -20 l328 0 0 40 c0 22 -4 40 -10 40 -5 0 -10 18
-10 40 0 31 -4 40 -17 41 -37 2 -99 6 -120 7 -26 2 -31 29 -8 38 8 4 15 10 15
15 0 5 -7 9 -15 9 -8 0 -15 9 -15 20 0 11 5 20 10 20 6 0 10 7 10 15 0 8 5 15
10 15 6 0 10 11 10 25 0 24 2 25 65 25 l65 0 0 40 c0 37 2 40 28 41 l27 1 -27
11 c-19 7 -28 18 -28 33 0 27 -17 34 -78 34 -42 0 -48 3 -60 29 -7 17 -12 51
-10 77 3 47 4 48 38 49 19 0 50 2 68 3 l32 2 0 60 c0 33 -4 60 -9 60 -5 0 -11
9 -14 20 -5 19 -14 20 -321 20 l-316 0 -6 -27 c-5 -17 -3 -28 4 -31 20 -6 14
-31 -13 -54 -14 -12 -25 -28 -25 -35 0 -7 -4 -13 -10 -13 -6 0 -7 31 -3 80 l6
80 -132 0 -131 0 0 -60 c0 -33 -4 -60 -10 -60 -5 0 -10 9 -10 20 0 11 -4 20
-10 20 -5 0 -10 18 -10 40 l0 40 -130 0 -130 0 0 -34z m870 -14 c0 -13 -12
-22 -22 -16 -10 6 -1 24 13 24 5 0 9 -4 9 -8z m0 -142 c0 -43 5 -82 10 -85 6
-4 10 -41 9 -86 l-1 -79 -39 0 c-51 0 -50 -18 1 -26 35 -6 40 -10 40 -33 0
-14 -9 -37 -20 -51 -23 -30 -25 -50 -5 -50 8 0 15 -7 15 -15 0 -8 -7 -15 -15
-15 -11 0 -15 -13 -15 -54 0 -30 5 -58 10 -61 6 -3 10 -10 10 -16 0 -5 -4 -9
-10 -9 -5 0 -10 7 -10 16 0 8 -4 13 -9 9 -10 -5 -31 48 -34 84 -1 12 -4 21 -8
21 -12 0 -20 67 -10 93 7 19 5 44 -10 97 -18 63 -19 79 -9 115 7 24 10 48 6
53 -9 14 42 155 61 169 27 20 33 6 33 -77z m-572 -20 c2 -30 7 -59 13 -64 5
-6 9 -25 9 -43 0 -25 -4 -33 -17 -33 -17 -1 -17 -1 0 -11 14 -8 17 -24 17 -83
0 -78 -16 -126 -41 -126 -13 0 -18 15 -23 72 -4 40 -11 77 -16 82 -15 15 -12
45 5 62 8 9 15 33 15 55 0 21 5 39 10 39 6 0 10 14 10 30 0 17 -4 30 -9 30
-11 0 -21 36 -13 45 3 3 13 4 22 3 11 -2 16 -18 18 -58z m732 -238 c0 -13 -12
-22 -22 -16 -10 6 -1 24 13 24 5 0 9 -4 9 -8z"/>
</g>
</svg>
